<?xml version="1.0" standalone="yes"?>
<svg xmlns="http://www.w3.org/2000/svg" width="600" height="1500">
<path style="fill:#dfe3e5; stroke:none;" d="M0 0L0 1800L600 1800L600 0L0 0z"/>
<path style="fill:#8ea0b6; stroke:none;" d="M446 576L447 577L446 576z"/>
<path style="fill:#647d9f; stroke:none;" d="M447.667 576.333L448.333 576.667L447.667 576.333z"/>
<path style="fill:#49678f; stroke:none;" d="M449.667 576.333L450.333 576.667L449.667 576.333z"/>
<path style="fill:#647d9f; stroke:none;" d="M451 576L452 577L451 576z"/>
<path style="fill:#8ea0b6; stroke:none;" d="M452 576L453 577L452 576M442 577L443 578L442 577z"/>
<path style="fill:#647d9f; stroke:none;" d="M443 577L444 578L443 577z"/>
<path style="fill:#49678f; stroke:none;" d="M444 577L445 578L444 577z"/>
<path style="fill:#042d69; stroke:none;" d="M338 611C340.809 607.311 345.428 603.632 346.551 599C348.053 592.807 342.583 588.804 337 591.307C329.944 594.471 325.399 604.435 318 606.096C309.789 607.941 296.237 600.705 288 599C291.043 595.954 295.796 592.471 296.638 588C297.587 582.962 292.967 578.3 288 580.134C280.489 582.906 275.283 593.813 267 594.233C245.575 595.32 230.877 578.932 214 601C243.887 615.146 274.621 627.446 303 644.601C311.626 649.815 327.724 660.127 326.577 672C325.255 685.687 303.772 699.372 294 707.386C286.79 713.299 277.898 724.43 269 727.386C255.395 731.906 235.999 719.289 222 719.282C215.537 719.278 209.614 725.345 204 728L204 730L245 757L238 767L250 763L270 808C287.405 795.481 282.217 779.593 281.996 761C281.925 754.999 279.296 748.25 283.318 743.015C289.641 734.782 300.05 728.526 308 721.919C318.854 712.897 336.251 694.747 352 696.558C366.762 698.255 370.886 712.942 374.151 725C382.497 755.816 392.547 786.735 399 818C425.022 806.999 408.321 786.835 413.318 767.001C415.411 758.692 426.646 755.276 430.718 747.985C433.134 743.659 432.391 736.766 425.995 737.502C421.248 738.049 416.643 742.2 413 745C411.404 736.406 407.884 721.781 410.179 713.286C412.162 705.949 423.366 702.373 427.397 695.999C429.881 692.07 428.821 685.26 422.995 685.647C418.058 685.976 412.854 691.24 409 694C408.901 682.006 407.28 670.008 406.985 658C406.881 653.745 404.797 648.233 407.028 644.286C410.199 638.673 417.24 634.175 422 629.95C431.939 621.127 441.985 612.062 450.711 602C455.246 596.77 462.638 587.349 457.258 580.228C452.069 573.362 440.653 578.458 435 581.823C422.411 589.315 411.391 599.073 400 608.2C395.567 611.752 390.452 617.872 385 619.687C381.003 621.018 374.996 618.639 371 617.789C360.081 615.467 349.071 612.43 338 611z"/>
<path style="fill:#647d9f; stroke:none;" d="M454 577L455 578L454 577z"/>
<path style="fill:#8ea0b6; stroke:none;" d="M440 578L441 579L440 578z"/>
<path style="fill:#49678f; stroke:none;" d="M441 578L442 579L441 578z"/>
<path style="fill:#8ea0b6; stroke:none;" d="M287 579L288 580L287 579z"/>
<path style="fill:#49678f; stroke:none;" d="M288 579L289 580L288 579M292 579L293 580L292 579z"/>
<path style="fill:#8ea0b6; stroke:none;" d="M438 579L439 580L438 579M457 579L458 580L457 579z"/>
<path style="fill:#647d9f; stroke:none;" d="M286 580L287 581L286 580z"/>
<path style="fill:#8ea0b6; stroke:none;" d="M294 580L295 581L294 580z"/>
<path style="fill:#49678f; stroke:none;" d="M437 580L438 581L437 580M285 581L286 582L285 581z"/>
<path style="fill:#8ea0b6; stroke:none;" d="M295 581L296 582L295 581z"/>
<path style="fill:#647d9f; stroke:none;" d="M435 581L436 582L435 581z"/>
<path style="fill:#49678f; stroke:none;" d="M458 581L459 582L458 581z"/>
<path style="fill:#8ea0b6; stroke:none;" d="M283 582L284 583L283 582M433 582L434 583L433 582M282 583L283 584L282 583z"/>
<path style="fill:#647d9f; stroke:none;" d="M296 583L297 584L296 583M432 583L433 584L432 583z"/>
<path style="fill:#8ea0b6; stroke:none;" d="M459 583L460 584L459 583z"/>
<path style="fill:#647d9f; stroke:none;" d="M281 584L282 585L281 584z"/>
<path style="fill:#8ea0b6; stroke:none;" d="M430 584L431 585L430 584z"/>
<path style="fill:#647d9f; stroke:none;" d="M459 584L460 585L459 584z"/>
<path style="fill:#49678f; stroke:none;" d="M280 585L281 586L280 585z"/>
<path style="fill:#8ea0b6; stroke:none;" d="M297 585L297 589L298 589L297 585z"/>
<path style="fill:#49678f; stroke:none;" d="M429 585L430 586L429 585M459 585L460 586L459 585M279 586L280 587L279 586z"/>
<path style="fill:#8ea0b6; stroke:none;" d="M427 586L428 587L427 586z"/>
<path style="fill:#647d9f; stroke:none;" d="M459 586L460 587L459 586z"/>
<path style="fill:#8ea0b6; stroke:none;" d="M234 587L234 588L237 588L234 587M277 587L278 588L277 587z"/>
<path style="fill:#49678f; stroke:none;" d="M426 587L427 588L426 587z"/>
<path style="fill:#8ea0b6; stroke:none;" d="M459.333 587.667L459.667 588.333L459.333 587.667M228 588L229 589L228 588z"/>
<path style="fill:#647d9f; stroke:none;" d="M229 588L230 589L229 588z"/>
<path style="fill:#49678f; stroke:none;" d="M230 588L231 589L230 588M239 588L240 589L239 588z"/>
<path style="fill:#8ea0b6; stroke:none;" d="M240.667 588.333L241.333 588.667L240.667 588.333M276 588L277 589L276 588M424 588L425 589L424 588z"/>
<path style="fill:#647d9f; stroke:none;" d="M226 589L227 590L226 589z"/>
<path style="fill:#49678f; stroke:none;" d="M243 589L244 590L243 589z"/>
<path style="fill:#647d9f; stroke:none;" d="M244 589L245 590L244 589z"/>
<path style="fill:#8ea0b6; stroke:none;" d="M245 589L246 590L245 589M275 589L276 590L275 589M341 589L342 590L341 589z"/>
<path style="fill:#647d9f; stroke:none;" d="M423 589L424 590L423 589z"/>
<path style="fill:#8ea0b6; stroke:none;" d="M224 590L225 591L224 590z"/>
<path style="fill:#49678f; stroke:none;" d="M248 590L249 591L248 590z"/>
<path style="fill:#647d9f; stroke:none;" d="M249 590L250 591L249 590z"/>
<path style="fill:#8ea0b6; stroke:none;" d="M250 590L251 591L250 590z"/>
<path style="fill:#49678f; stroke:none;" d="M274 590L275 591L274 590z"/>
<path style="fill:#8ea0b6; stroke:none;" d="M296 590L297 591L296 590M337 590L338 591L337 590z"/>
<path style="fill:#49678f; stroke:none;" d="M338 590L339 591L338 590M343 590L344 591L343 590z"/>
<path style="fill:#8ea0b6; stroke:none;" d="M344 590L345 591L344 590z"/>
<path style="fill:#49678f; stroke:none;" d="M422 590L423 591L422 590z"/>
<path style="fill:#647d9f; stroke:none;" d="M458 590L459 591L458 590M223 591L224 592L223 591z"/>
<path style="fill:#49678f; stroke:none;" d="M253 591L254 592L253 591z"/>
<path style="fill:#8ea0b6; stroke:none;" d="M254.667 591.333L255.333 591.667L254.667 591.333z"/>
<path style="fill:#49678f; stroke:none;" d="M273 591L274 592L273 591z"/>
<path style="fill:#8ea0b6; stroke:none;" d="M295 591L296 592L295 591M335 591L336 592L335 591M345 591L346 592L345 591M420 591L421 592L420 591z"/>
<path style="fill:#647d9f; stroke:none;" d="M222 592L223 593L222 592z"/>
<path style="fill:#49678f; stroke:none;" d="M257 592L258 593L257 592z"/>
<path style="fill:#647d9f; stroke:none;" d="M258 592L259 593L258 592z"/>
<path style="fill:#8ea0b6; stroke:none;" d="M259 592L260 593L259 592M294 592L295 593L294 592z"/>
<path style="fill:#647d9f; stroke:none;" d="M334 592L335 593L334 592z"/>
<path style="fill:#8ea0b6; stroke:none;" d="M346 592L347 593L346 592z"/>
<path style="fill:#647d9f; stroke:none;" d="M419 592L420 593L419 592z"/>
<path style="fill:#49678f; stroke:none;" d="M457 592L458 593L457 592M221 593L222 594L221 593M262 593L263 594L262 593z"/>
<path style="fill:#647d9f; stroke:none;" d="M263 593L264 594L263 593z"/>
<path style="fill:#8ea0b6; stroke:none;" d="M264 593L265 594L264 593M270 593L271 594L270 593M293 593L294 594L293 593z"/>
<path style="fill:#49678f; stroke:none;" d="M333 593L334 594L333 593M346 593L347 594L346 593M418 593L419 594L418 593M220 594L221 595L220 594M266.667 594.333L267.333 594.667L266.667 594.333z"/>
<path style="fill:#8ea0b6; stroke:none;" d="M268.667 594.333L269.333 594.667L268.667 594.333M292 594L293 595L292 594z"/>
<path style="fill:#49678f; stroke:none;" d="M332 594L333 595L332 594z"/>
<path style="fill:#8ea0b6; stroke:none;" d="M416 594L417 595L416 594z"/>
<path style="fill:#647d9f; stroke:none;" d="M456 594L457 595L456 594z"/>
<path style="fill:#49678f; stroke:none;" d="M219 595L220 596L219 595z"/>
<path style="fill:#8ea0b6; stroke:none;" d="M291 595L292 596L291 595M347 595L348 596L347 595M415 595L416 596L415 595z"/>
<path style="fill:#49678f; stroke:none;" d="M218 596L219 597L218 596z"/>
<path style="fill:#8ea0b6; stroke:none;" d="M290 596L291 597L290 596z"/>
<path style="fill:#647d9f; stroke:none;" d="M347 596L348 597L347 596M414 596L415 597L414 596z"/>
<path style="fill:#8ea0b6; stroke:none;" d="M455 596L456 597L455 596M289 597L290 598L289 597M347.333 597.667L347.667 598.333L347.333 597.667z"/>
<path style="fill:#49678f; stroke:none;" d="M413 597L414 598L413 597z"/>
<path style="fill:#8ea0b6; stroke:none;" d="M454 597L455 598L454 597M215 598L216 599L215 598z"/>
<path style="fill:#49678f; stroke:none;" d="M288 598L289 599L288 598M453 598L454 599L453 598z"/>
<path style="fill:#8ea0b6; stroke:none;" d="M214 599L215 600L214 599z"/>
<path style="fill:#49678f; stroke:none;" d="M290 599L291 600L290 599z"/>
<path style="fill:#8ea0b6; stroke:none;" d="M291 599L292 600L291 599M410 599L411 600L410 599z"/>
<path style="fill:#49678f; stroke:none;" d="M452 599L453 600L452 599z"/>
<path style="fill:#8ea0b6; stroke:none;" d="M213 600L214 601L213 600z"/>
<path style="fill:#647d9f; stroke:none;" d="M294 600L295 601L294 600z"/>
<path style="fill:#8ea0b6; stroke:none;" d="M295 600L296 601L295 600z"/>
<path style="fill:#49678f; stroke:none;" d="M346 600L347 601L346 600z"/>
<path style="fill:#647d9f; stroke:none;" d="M409 600L410 601L409 600M214 601L215 602L214 601z"/>
<path style="fill:#49678f; stroke:none;" d="M297 601L298 602L297 601z"/>
<path style="fill:#647d9f; stroke:none;" d="M298 601L299 602L298 601z"/>
<path style="fill:#8ea0b6; stroke:none;" d="M299 601L300 602L299 601z"/>
<path style="fill:#49678f; stroke:none;" d="M408 601L409 602L408 601z"/>
<path style="fill:#8ea0b6; stroke:none;" d="M451 601L452 602L451 601M216 602L217 603L216 602z"/>
<path style="fill:#49678f; stroke:none;" d="M217 602L218 603L217 602M301 602L302 603L301 602z"/>
<path style="fill:#647d9f; stroke:none;" d="M302 602L303 603L302 602z"/>
<path style="fill:#8ea0b6; stroke:none;" d="M303 602L304 603L303 602M345 602L346 603L345 602z"/>
<path style="fill:#49678f; stroke:none;" d="M407 602L408 603L407 602z"/>
<path style="fill:#8ea0b6; stroke:none;" d="M450 602L451 603L450 602M218 603L219 604L218 603z"/>
<path style="fill:#49678f; stroke:none;" d="M219 603L220 604L219 603M305 603L306 604L305 603z"/>
<path style="fill:#8ea0b6; stroke:none;" d="M306 603L307 604L306 603z"/>
<path style="fill:#647d9f; stroke:none;" d="M344 603L345 604L344 603z"/>
<path style="fill:#8ea0b6; stroke:none;" d="M405 603L406 604L405 603M449 603L450 604L449 603z"/>
<path style="fill:#647d9f; stroke:none;" d="M221 604L222 605L221 604z"/>
<path style="fill:#49678f; stroke:none;" d="M309 604L310 605L309 604z"/>
<path style="fill:#8ea0b6; stroke:none;" d="M310 604L311 605L310 604z"/>
<path style="fill:#647d9f; stroke:none;" d="M343 604L344 605L343 604M404 604L405 605L404 604M448 604L449 605L448 604z"/>
<path style="fill:#8ea0b6; stroke:none;" d="M223 605L224 606L223 605z"/>
<path style="fill:#49678f; stroke:none;" d="M224 605L225 606L224 605M312 605L313 606L312 605z"/>
<path style="fill:#647d9f; stroke:none;" d="M313 605L314 606L313 605z"/>
<path style="fill:#8ea0b6; stroke:none;" d="M314 605L315 606L314 605z"/>
<path style="fill:#647d9f; stroke:none;" d="M342 605L343 606L342 605z"/>
<path style="fill:#49678f; stroke:none;" d="M403 605L404 606L403 605M447 605L448 606L447 605z"/>
<path style="fill:#8ea0b6; stroke:none;" d="M225 606L226 607L225 606z"/>
<path style="fill:#49678f; stroke:none;" d="M226 606L227 607L226 606M316 606L317 607L316 606z"/>
<path style="fill:#647d9f; stroke:none;" d="M317 606L318 607L317 606z"/>
<path style="fill:#8ea0b6; stroke:none;" d="M318 606L319 607L318 606z"/>
<path style="fill:#49678f; stroke:none;" d="M341 606L342 607L341 606M402 606L403 607L402 606M446 606L447 607L446 606z"/>
<path style="fill:#647d9f; stroke:none;" d="M228 607L229 608L228 607z"/>
<path style="fill:#49678f; stroke:none;" d="M340 607L341 608L340 607z"/>
<path style="fill:#8ea0b6; stroke:none;" d="M400 607L401 608L400 607z"/>
<path style="fill:#49678f; stroke:none;" d="M445 607L446 608L445 607z"/>
<path style="fill:#647d9f; stroke:none;" d="M230 608L231 609L230 608z"/>
<path style="fill:#49678f; stroke:none;" d="M339 608L340 609L339 608z"/>
<path style="fill:#647d9f; stroke:none;" d="M399 608L400 609L399 608z"/>
<path style="fill:#49678f; stroke:none;" d="M444 608L445 609L444 608z"/>
<path style="fill:#647d9f; stroke:none;" d="M232 609L233 610L232 609z"/>
<path style="fill:#49678f; stroke:none;" d="M398 609L399 610L398 609M443 609L444 610L443 609z"/>
<path style="fill:#8ea0b6; stroke:none;" d="M234 610L235 611L234 610z"/>
<path style="fill:#647d9f; stroke:none;" d="M338 610L339 611L338 610z"/>
<path style="fill:#8ea0b6; stroke:none;" d="M339 610L340 611L339 610z"/>
<path style="fill:#49678f; stroke:none;" d="M397 610L398 611L397 610z"/>
<path style="fill:#8ea0b6; stroke:none;" d="M236 611L237 612L236 611z"/>
<path style="fill:#49678f; stroke:none;" d="M237 611L238 612L237 611M341 611L342 612L341 611z"/>
<path style="fill:#647d9f; stroke:none;" d="M342 611L343 612L342 611z"/>
<path style="fill:#8ea0b6; stroke:none;" d="M343 611L344 612L343 611M395 611L396 612L395 611z"/>
<path style="fill:#49678f; stroke:none;" d="M441 611L442 612L441 611z"/>
<path style="fill:#647d9f; stroke:none;" d="M239 612L240 613L239 612z"/>
<path style="fill:#49678f; stroke:none;" d="M346 612L347 613L346 612z"/>
<path style="fill:#647d9f; stroke:none;" d="M347 612L348 613L347 612z"/>
<path style="fill:#8ea0b6; stroke:none;" d="M348 612L349 613L348 612M394 612L395 613L394 612z"/>
<path style="fill:#49678f; stroke:none;" d="M440 612L441 613L440 612z"/>
<path style="fill:#8ea0b6; stroke:none;" d="M241 613L242 614L241 613z"/>
<path style="fill:#49678f; stroke:none;" d="M350.667 613.333L351.333 613.667L350.667 613.333z"/>
<path style="fill:#8ea0b6; stroke:none;" d="M352.667 613.333L353.333 613.667L352.667 613.333z"/>
<path style="fill:#647d9f; stroke:none;" d="M393 613L394 614L393 613z"/>
<path style="fill:#49678f; stroke:none;" d="M439 613L440 614L439 613z"/>
<path style="fill:#8ea0b6; stroke:none;" d="M243 614L244 615L243 614z"/>
<path style="fill:#49678f; stroke:none;" d="M355 614L356 615L355 614z"/>
<path style="fill:#647d9f; stroke:none;" d="M356 614L357 615L356 614z"/>
<path style="fill:#8ea0b6; stroke:none;" d="M357 614L358 615L357 614z"/>
<path style="fill:#49678f; stroke:none;" d="M392 614L393 615L392 614M438 614L439 615L438 614z"/>
<path style="fill:#8ea0b6; stroke:none;" d="M245 615L246 616L245 615z"/>
<path style="fill:#49678f; stroke:none;" d="M246 615L247 616L246 615M360 615L361 616L360 615z"/>
<path style="fill:#647d9f; stroke:none;" d="M361 615L362 616L361 615z"/>
<path style="fill:#8ea0b6; stroke:none;" d="M362 615L363 616L362 615z"/>
<path style="fill:#49678f; stroke:none;" d="M391 615L392 616L391 615M437 615L438 616L437 615z"/>
<path style="fill:#8ea0b6; stroke:none;" d="M247 616L248 617L247 616z"/>
<path style="fill:#49678f; stroke:none;" d="M248 616L249 617L248 616M365 616L366 617L365 616z"/>
<path style="fill:#8ea0b6; stroke:none;" d="M366.667 616.333L367.333 616.667L366.667 616.333M389 616L390 617L389 616z"/>
<path style="fill:#647d9f; stroke:none;" d="M436 616L437 617L436 616M250 617L251 618L250 617z"/>
<path style="fill:#49678f; stroke:none;" d="M369 617L370 618L369 617z"/>
<path style="fill:#647d9f; stroke:none;" d="M370 617L371 618L370 617z"/>
<path style="fill:#8ea0b6; stroke:none;" d="M371.667 617.333L372.333 617.667L371.667 617.333M388 617L389 618L388 617z"/>
<path style="fill:#647d9f; stroke:none;" d="M435 617L436 618L435 617M252 618L253 619L252 618z"/>
<path style="fill:#49678f; stroke:none;" d="M374 618L375 619L374 618z"/>
<path style="fill:#647d9f; stroke:none;" d="M375 618L376 619L375 618z"/>
<path style="fill:#8ea0b6; stroke:none;" d="M376 618L377 619L376 618z"/>
<path style="fill:#647d9f; stroke:none;" d="M387 618L388 619L387 618M434 618L435 619L434 618M254 619L255 620L254 619z"/>
<path style="fill:#49678f; stroke:none;" d="M379 619L380 620L379 619z"/>
<path style="fill:#647d9f; stroke:none;" d="M380 619L381 620L380 619z"/>
<path style="fill:#8ea0b6; stroke:none;" d="M381 619L382 620L381 619z"/>
<path style="fill:#49678f; stroke:none;" d="M386 619L387 620L386 619z"/>
<path style="fill:#8ea0b6; stroke:none;" d="M433 619L434 620L433 619z"/>
<path style="fill:#647d9f; stroke:none;" d="M256 620L257 621L256 620z"/>
<path style="fill:#49678f; stroke:none;" d="M383 620L383 621L386 621L383 620z"/>
<path style="fill:#8ea0b6; stroke:none;" d="M432 620L433 621L432 620z"/>
<path style="fill:#647d9f; stroke:none;" d="M258 621L259 622L258 621z"/>
<path style="fill:#8ea0b6; stroke:none;" d="M431 621L432 622L431 621M260 622L261 623L260 622M430 622L431 623L430 622M262 623L263 624L262 623z"/>
<path style="fill:#49678f; stroke:none;" d="M263 623L264 624L263 623z"/>
<path style="fill:#8ea0b6; stroke:none;" d="M429 623L430 624L429 623M264 624L265 625L264 624z"/>
<path style="fill:#49678f; stroke:none;" d="M265 624L266 625L265 624M267 625L268 626L267 625M269 626L270 627L269 626M425 626L426 627L425 626M271 627L272 628L271 627M424 627L425 628L424 627M273 628L274 629L273 628z"/>
<path style="fill:#647d9f; stroke:none;" d="M423 628L424 629L423 628z"/>
<path style="fill:#49678f; stroke:none;" d="M275 629L276 630L275 629z"/>
<path style="fill:#8ea0b6; stroke:none;" d="M422 629L423 630L422 629z"/>
<path style="fill:#49678f; stroke:none;" d="M277 630L278 631L277 630z"/>
<path style="fill:#8ea0b6; stroke:none;" d="M421 630L422 631L421 630z"/>
<path style="fill:#49678f; stroke:none;" d="M279 631L280 632L279 631z"/>
<path style="fill:#8ea0b6; stroke:none;" d="M420 631L421 632L420 631M280 632L281 633L280 632z"/>
<path style="fill:#49678f; stroke:none;" d="M281 632L282 633L281 632z"/>
<path style="fill:#8ea0b6; stroke:none;" d="M282 633L283 634L282 633z"/>
<path style="fill:#49678f; stroke:none;" d="M283 633L284 634L283 633M417 633L418 634L417 633z"/>
<path style="fill:#8ea0b6; stroke:none;" d="M284 634L285 635L284 634z"/>
<path style="fill:#49678f; stroke:none;" d="M285 634L286 635L285 634M416 634L417 635L416 634z"/>
<path style="fill:#8ea0b6; stroke:none;" d="M286 635L287 636L286 635z"/>
<path style="fill:#49678f; stroke:none;" d="M415 635L416 636L415 635z"/>
<path style="fill:#8ea0b6; stroke:none;" d="M288 636L289 637L288 636z"/>
<path style="fill:#647d9f; stroke:none;" d="M414 636L415 637L414 636M290 637L291 638L290 637M413 637L414 638L413 637z"/>
<path style="fill:#49678f; stroke:none;" d="M292 638L293 639L292 638z"/>
<path style="fill:#8ea0b6; stroke:none;" d="M412 638L413 639L412 638z"/>
<path style="fill:#49678f; stroke:none;" d="M294 639L295 640L294 639z"/>
<path style="fill:#8ea0b6; stroke:none;" d="M411 639L412 640L411 639M295 640L296 641L295 640z"/>
<path style="fill:#49678f; stroke:none;" d="M296 640L297 641L296 640z"/>
<path style="fill:#8ea0b6; stroke:none;" d="M410 640L411 641L410 640M297 641L298 642L297 641z"/>
<path style="fill:#49678f; stroke:none;" d="M299 642L300 643L299 642z"/>
<path style="fill:#8ea0b6; stroke:none;" d="M300 643L301 644L300 643z"/>
<path style="fill:#49678f; stroke:none;" d="M301 643L302 644L301 643M406 643L407 644L406 643z"/>
<path style="fill:#8ea0b6; stroke:none;" d="M302 644L303 645L302 644M406 644L406 647L407 647L406 644z"/>
<path style="fill:#49678f; stroke:none;" d="M304 645L305 646L304 645z"/>
<path style="fill:#8ea0b6; stroke:none;" d="M305 646L306 647L305 646z"/>
<path style="fill:#49678f; stroke:none;" d="M306 646L307 647L306 646z"/>
<path style="fill:#8ea0b6; stroke:none;" d="M307 647L308 648L307 647z"/>
<path style="fill:#647d9f; stroke:none;" d="M406.333 647.667L406.667 648.333L406.333 647.667z"/>
<path style="fill:#49678f; stroke:none;" d="M309 648L310 649L309 648z"/>
<path style="fill:#8ea0b6; stroke:none;" d="M310 649L311 650L310 649z"/>
<path style="fill:#49678f; stroke:none;" d="M406 649L406 653L407 653L406 649z"/>
<path style="fill:#8ea0b6; stroke:none;" d="M311 650L312 651L311 650z"/>
<path style="fill:#49678f; stroke:none;" d="M313 651L314 652L313 651z"/>
<path style="fill:#647d9f; stroke:none;" d="M314 652L315 653L314 652z"/>
<path style="fill:#8ea0b6; stroke:none;" d="M315 653L316 654L315 653M316 654L317 655L316 654M317 655L318 656L317 655M318 656L319 657L318 656M319 657L320 658L319 657M320 658L321 659L320 658z"/>
<path style="fill:#647d9f; stroke:none;" d="M321 659L322 660L321 659z"/>
<path style="fill:#8ea0b6; stroke:none;" d="M407 659L407 664L408 664L407 659z"/>
<path style="fill:#49678f; stroke:none;" d="M322 660L323 661L322 660z"/>
<path style="fill:#8ea0b6; stroke:none;" d="M323 662L324 663L323 662z"/>
<path style="fill:#49678f; stroke:none;" d="M324 663L325 664L324 663z"/>
<path style="fill:#8ea0b6; stroke:none;" d="M324 664L325 665L324 664z"/>
<path style="fill:#647d9f; stroke:none;" d="M407.333 664.667L407.667 665.333L407.333 664.667z"/>
<path style="fill:#49678f; stroke:none;" d="M325 665L326 666L325 665z"/>
<path style="fill:#8ea0b6; stroke:none;" d="M325 666L326 667L325 666z"/>
<path style="fill:#49678f; stroke:none;" d="M407 666L407 670L408 670L407 666M326.333 668.667L326.667 669.333L326.333 668.667z"/>
<path style="fill:#647d9f; stroke:none;" d="M326.333 670.667L326.667 671.333L326.333 670.667z"/>
<path style="fill:#49678f; stroke:none;" d="M326.333 672.667L326.667 673.333L326.333 672.667z"/>
<path style="fill:#8ea0b6; stroke:none;" d="M325 675L326 676L325 675M408 675L408 680L409 680L408 675z"/>
<path style="fill:#49678f; stroke:none;" d="M325 676L326 677L325 676z"/>
<path style="fill:#8ea0b6; stroke:none;" d="M324 677L325 678L324 677z"/>
<path style="fill:#49678f; stroke:none;" d="M324 678L325 679L324 678z"/>
<path style="fill:#8ea0b6; stroke:none;" d="M323 679L324 680L323 679z"/>
<path style="fill:#647d9f; stroke:none;" d="M408 680L408 683L409 683L408 680z"/>
<path style="fill:#49678f; stroke:none;" d="M322 681L323 682L322 681M321 682L322 683L321 682M320 683L321 684L320 683M408 683L408 687L409 687L408 683M319 684L320 685L319 684z"/>
<path style="fill:#647d9f; stroke:none;" d="M318 685L319 686L318 685M421 685L422 686L421 685z"/>
<path style="fill:#49678f; stroke:none;" d="M425 685L426 686L425 685z"/>
<path style="fill:#8ea0b6; stroke:none;" d="M426 685L427 686L426 685z"/>
<path style="fill:#647d9f; stroke:none;" d="M317 686L318 687L317 686z"/>
<path style="fill:#8ea0b6; stroke:none;" d="M419 686L420 687L419 686z"/>
<path style="fill:#647d9f; stroke:none;" d="M427 686L428 687L427 686z"/>
<path style="fill:#49678f; stroke:none;" d="M316 687L317 688L316 687M418 687L419 688L418 687z"/>
<path style="fill:#647d9f; stroke:none;" d="M428 687L429 688L428 687z"/>
<path style="fill:#49678f; stroke:none;" d="M315 688L316 689L315 688z"/>
<path style="fill:#8ea0b6; stroke:none;" d="M416 688L417 689L416 688M429 688L430 689L429 688z"/>
<path style="fill:#49678f; stroke:none;" d="M314 689L315 690L314 689z"/>
<path style="fill:#647d9f; stroke:none;" d="M415 689L416 690L415 689M429 689L430 690L429 689z"/>
<path style="fill:#49678f; stroke:none;" d="M313 690L314 691L313 690z"/>
<path style="fill:#8ea0b6; stroke:none;" d="M413 690L414 691L413 690z"/>
<path style="fill:#49678f; stroke:none;" d="M429.333 690.667L429.667 691.333L429.333 690.667M312 691L313 692L312 691z"/>
<path style="fill:#647d9f; stroke:none;" d="M412 691L413 692L412 691z"/>
<path style="fill:#8ea0b6; stroke:none;" d="M409 692L410 693L409 692z"/>
<path style="fill:#49678f; stroke:none;" d="M411 692L412 693L411 692z"/>
<path style="fill:#647d9f; stroke:none;" d="M429 692L430 693L429 692M409 693L410 694L409 693z"/>
<path style="fill:#8ea0b6; stroke:none;" d="M429 693L430 694L429 693M308 694L309 695L308 694M307 695L308 696L307 695M428 695L429 696L428 695M306 696L307 697L306 696z"/>
<path style="fill:#49678f; stroke:none;" d="M348 696L349 697L348 696z"/>
<path style="fill:#647d9f; stroke:none;" d="M349.667 696.333L350.333 696.667L349.667 696.333z"/>
<path style="fill:#49678f; stroke:none;" d="M351.667 696.333L352.333 696.667L351.667 696.333M427 696L428 697L427 696z"/>
<path style="fill:#647d9f; stroke:none;" d="M305 697L306 698L305 697z"/>
<path style="fill:#49678f; stroke:none;" d="M344 697L345 698L344 697z"/>
<path style="fill:#8ea0b6; stroke:none;" d="M345 697L346 698L345 697M355 697L356 698L355 697z"/>
<path style="fill:#647d9f; stroke:none;" d="M356 697L357 698L356 697z"/>
<path style="fill:#49678f; stroke:none;" d="M426 697L427 698L426 697M304 698L305 699L304 698z"/>
<path style="fill:#647d9f; stroke:none;" d="M342 698L343 699L342 698z"/>
<path style="fill:#8ea0b6; stroke:none;" d="M358 698L359 699L358 698z"/>
<path style="fill:#49678f; stroke:none;" d="M425 698L426 699L425 698M303 699L304 700L303 699M339 699L340 700L339 699z"/>
<path style="fill:#8ea0b6; stroke:none;" d="M340 699L341 700L340 699z"/>
<path style="fill:#647d9f; stroke:none;" d="M360 699L361 700L360 699z"/>
<path style="fill:#49678f; stroke:none;" d="M424 699L425 700L424 699M302 700L303 701L302 700M337 700L338 701L337 700z"/>
<path style="fill:#8ea0b6; stroke:none;" d="M338 700L339 701L338 700z"/>
<path style="fill:#49678f; stroke:none;" d="M362 700L363 701L362 700z"/>
<path style="fill:#647d9f; stroke:none;" d="M423 700L424 701L423 700z"/>
<path style="fill:#8ea0b6; stroke:none;" d="M300 701L301 702L300 701z"/>
<path style="fill:#49678f; stroke:none;" d="M335 701L336 702L335 701z"/>
<path style="fill:#8ea0b6; stroke:none;" d="M336 701L337 702L336 701z"/>
<path style="fill:#49678f; stroke:none;" d="M363 701L364 702L363 701z"/>
<path style="fill:#8ea0b6; stroke:none;" d="M422 701L423 702L422 701M299 702L300 703L299 702z"/>
<path style="fill:#49678f; stroke:none;" d="M333 702L334 703L333 702z"/>
<path style="fill:#8ea0b6; stroke:none;" d="M334 702L335 703L334 702z"/>
<path style="fill:#49678f; stroke:none;" d="M364 702L365 703L364 702z"/>
<path style="fill:#8ea0b6; stroke:none;" d="M421 702L422 703L421 702M298 703L299 704L298 703M332 703L333 704L332 703z"/>
<path style="fill:#49678f; stroke:none;" d="M365 703L366 704L365 703M419 703L420 704L419 703z"/>
<path style="fill:#647d9f; stroke:none;" d="M297 704L298 705L297 704M330 704L331 705L330 704z"/>
<path style="fill:#49678f; stroke:none;" d="M366 704L367 705L366 704z"/>
<path style="fill:#647d9f; stroke:none;" d="M418 704L419 705L418 704z"/>
<path style="fill:#49678f; stroke:none;" d="M296 705L297 706L296 705z"/>
<path style="fill:#647d9f; stroke:none;" d="M328 705L329 706L328 705z"/>
<path style="fill:#8ea0b6; stroke:none;" d="M417 705L418 706L417 705z"/>
<path style="fill:#49678f; stroke:none;" d="M295 706L296 707L295 706z"/>
<path style="fill:#8ea0b6; stroke:none;" d="M327 706L328 707L327 706M367 706L368 707L367 706M416 706L417 707L416 706M293 707L294 708L293 707z"/>
<path style="fill:#647d9f; stroke:none;" d="M325 707L326 708L325 707z"/>
<path style="fill:#49678f; stroke:none;" d="M414 707L415 708L414 707z"/>
<path style="fill:#8ea0b6; stroke:none;" d="M292 708L293 709L292 708M324 708L325 709L324 708M368 708L369 709L368 708z"/>
<path style="fill:#49678f; stroke:none;" d="M413 708L414 709L413 708M291 709L292 710L291 709M322 709L323 710L322 709M369 709L370 710L369 709z"/>
<path style="fill:#647d9f; stroke:none;" d="M412 709L413 710L412 709z"/>
<path style="fill:#49678f; stroke:none;" d="M290 710L291 711L290 710M321 710L322 711L321 710z"/>
<path style="fill:#8ea0b6; stroke:none;" d="M369 710L370 711L369 710M411 710L412 711L411 710z"/>
<path style="fill:#647d9f; stroke:none;" d="M320 711L321 712L320 711z"/>
<path style="fill:#8ea0b6; stroke:none;" d="M287 712L288 713L287 712M319 712L320 713L319 712z"/>
<path style="fill:#647d9f; stroke:none;" d="M370 712L371 713L370 712z"/>
<path style="fill:#49678f; stroke:none;" d="M409 712L410 713L409 712z"/>
<path style="fill:#8ea0b6; stroke:none;" d="M286 713L287 714L286 713M318 713L319 714L318 713M370 713L371 714L370 713M285 714L286 715L285 714z"/>
<path style="fill:#49678f; stroke:none;" d="M316 714L317 715L316 714z"/>
<path style="fill:#647d9f; stroke:none;" d="M284 715L285 716L284 715z"/>
<path style="fill:#49678f; stroke:none;" d="M315 715L316 716L315 715z"/>
<path style="fill:#647d9f; stroke:none;" d="M371 715L372 716L371 715z"/>
<path style="fill:#49678f; stroke:none;" d="M283 716L284 717L283 716z"/>
<path style="fill:#647d9f; stroke:none;" d="M314 716L315 717L314 716z"/>
<path style="fill:#8ea0b6; stroke:none;" d="M371 716L372 717L371 716M410 716L410 719L411 719L410 716M313 717L314 718L313 717M219 718L220 719L219 718z"/>
<path style="fill:#49678f; stroke:none;" d="M220 718L221 719L220 718z"/>
<path style="fill:#8ea0b6; stroke:none;" d="M221 718L222 719L221 718M280 718L281 719L280 718M312 718L313 719L312 718z"/>
<path style="fill:#49678f; stroke:none;" d="M372 718L373 719L372 718M218 719L219 720L218 719M224 719L225 720L224 719z"/>
<path style="fill:#8ea0b6; stroke:none;" d="M225.667 719.333L226.333 719.667L225.667 719.333M279 719L280 720L279 719z"/>
<path style="fill:#49678f; stroke:none;" d="M310 719L311 720L310 719z"/>
<path style="fill:#647d9f; stroke:none;" d="M372 719L373 720L372 719M410.333 719.667L410.667 720.333L410.333 719.667z"/>
<path style="fill:#8ea0b6; stroke:none;" d="M216 720L217 721L216 720z"/>
<path style="fill:#49678f; stroke:none;" d="M228 720L229 721L228 720z"/>
<path style="fill:#647d9f; stroke:none;" d="M229 720L230 721L229 720z"/>
<path style="fill:#8ea0b6; stroke:none;" d="M230 720L231 721L230 720z"/>
<path style="fill:#647d9f; stroke:none;" d="M278 720L279 721L278 720M309 720L310 721L309 720z"/>
<path style="fill:#8ea0b6; stroke:none;" d="M372 720L373 721L372 720z"/>
<path style="fill:#49678f; stroke:none;" d="M215 721L216 722L215 721M233 721L234 722L233 721z"/>
<path style="fill:#647d9f; stroke:none;" d="M234 721L235 722L234 721z"/>
<path style="fill:#8ea0b6; stroke:none;" d="M235 721L236 722L235 721z"/>
<path style="fill:#49678f; stroke:none;" d="M277 721L278 722L277 721z"/>
<path style="fill:#8ea0b6; stroke:none;" d="M308 721L309 722L308 721z"/>
<path style="fill:#49678f; stroke:none;" d="M410.333 721.667L410.667 722.333L410.333 721.667z"/>
<path style="fill:#647d9f; stroke:none;" d="M213 722L214 723L213 722z"/>
<path style="fill:#49678f; stroke:none;" d="M237 722L238 723L237 722z"/>
<path style="fill:#647d9f; stroke:none;" d="M238 722L239 723L238 722z"/>
<path style="fill:#8ea0b6; stroke:none;" d="M239 722L240 723L239 722z"/>
<path style="fill:#49678f; stroke:none;" d="M276 722L277 723L276 722z"/>
<path style="fill:#8ea0b6; stroke:none;" d="M307 722L308 723L307 722z"/>
<path style="fill:#49678f; stroke:none;" d="M373 722L374 723L373 722z"/>
<path style="fill:#8ea0b6; stroke:none;" d="M211 723L212 724L211 723z"/>
<path style="fill:#49678f; stroke:none;" d="M242 723L243 724L242 723z"/>
<path style="fill:#647d9f; stroke:none;" d="M243 723L244 724L243 723z"/>
<path style="fill:#8ea0b6; stroke:none;" d="M244.667 723.333L245.333 723.667L244.667 723.333M274 723L275 724L274 723M373 723L374 724L373 723z"/>
<path style="fill:#49678f; stroke:none;" d="M210 724L211 725L210 724M247 724L248 725L247 724z"/>
<path style="fill:#647d9f; stroke:none;" d="M248 724L249 725L248 724z"/>
<path style="fill:#8ea0b6; stroke:none;" d="M249 724L250 725L249 724M273 724L274 725L273 724z"/>
<path style="fill:#49678f; stroke:none;" d="M304 724L305 725L304 724z"/>
<path style="fill:#8ea0b6; stroke:none;" d="M208 725L209 726L208 725z"/>
<path style="fill:#49678f; stroke:none;" d="M252 725L253 726L252 725z"/>
<path style="fill:#647d9f; stroke:none;" d="M253 725L254 726L253 725z"/>
<path style="fill:#8ea0b6; stroke:none;" d="M254 725L255 726L254 725M272 725L273 726L272 725z"/>
<path style="fill:#647d9f; stroke:none;" d="M303 725L304 726L303 725z"/>
<path style="fill:#49678f; stroke:none;" d="M207 726L208 727L207 726M258 726L259 727L258 726z"/>
<path style="fill:#647d9f; stroke:none;" d="M259 726L260 727L259 726z"/>
<path style="fill:#8ea0b6; stroke:none;" d="M260 726L261 727L260 726z"/>
<path style="fill:#647d9f; stroke:none;" d="M271 726L272 727L271 726z"/>
<path style="fill:#8ea0b6; stroke:none;" d="M302 726L303 727L302 726z"/>
<path style="fill:#647d9f; stroke:none;" d="M374 726L375 727L374 726z"/>
<path style="fill:#8ea0b6; stroke:none;" d="M411 726L411 729L412 729L411 726z"/>
<path style="fill:#647d9f; stroke:none;" d="M205 727L206 728L205 727z"/>
<path style="fill:#49678f; stroke:none;" d="M263 727L264 728L263 727z"/>
<path style="fill:#647d9f; stroke:none;" d="M264 727L265 728L264 727z"/>
<path style="fill:#8ea0b6; stroke:none;" d="M265.667 727.333L266.333 727.667L265.667 727.333z"/>
<path style="fill:#49678f; stroke:none;" d="M270 727L271 728L270 727z"/>
<path style="fill:#8ea0b6; stroke:none;" d="M301 727L302 728L301 727M374 727L375 728L374 727M203 728L204 729L203 728z"/>
<path style="fill:#49678f; stroke:none;" d="M299 728L300 729L299 728M203 729L204 730L203 729M298 729L299 730L298 729M375 729L376 730L375 729z"/>
<path style="fill:#647d9f; stroke:none;" d="M411.333 729.667L411.667 730.333L411.333 729.667z"/>
<path style="fill:#8ea0b6; stroke:none;" d="M204 730L205 731L204 730z"/>
<path style="fill:#647d9f; stroke:none;" d="M297 730L298 731L297 730M375 730L376 731L375 730z"/>
<path style="fill:#49678f; stroke:none;" d="M206 731L207 732L206 731z"/>
<path style="fill:#8ea0b6; stroke:none;" d="M296 731L297 732L296 731M375 731L376 732L375 731z"/>
<path style="fill:#49678f; stroke:none;" d="M411.333 731.667L411.667 732.333L411.333 731.667z"/>
<path style="fill:#8ea0b6; stroke:none;" d="M207 732L208 733L207 732M295 732L296 733L295 732z"/>
<path style="fill:#49678f; stroke:none;" d="M209 733L210 734L209 733M293 733L294 734L293 733M376 733L377 734L376 733z"/>
<path style="fill:#8ea0b6; stroke:none;" d="M210 734L211 735L210 734z"/>
<path style="fill:#49678f; stroke:none;" d="M292 734L293 735L292 734z"/>
<path style="fill:#8ea0b6; stroke:none;" d="M376.333 734.667L376.667 735.333L376.333 734.667z"/>
<path style="fill:#49678f; stroke:none;" d="M212 735L213 736L212 735z"/>
<path style="fill:#647d9f; stroke:none;" d="M291 735L292 736L291 735M213 736L214 737L213 736z"/>
<path style="fill:#8ea0b6; stroke:none;" d="M290 736L291 737L290 736M412 736L412 739L413 739L412 736M426.667 736.333L427.333 736.667L426.667 736.333z"/>
<path style="fill:#49678f; stroke:none;" d="M215 737L216 738L215 737z"/>
<path style="fill:#8ea0b6; stroke:none;" d="M289 737L290 738L289 737z"/>
<path style="fill:#49678f; stroke:none;" d="M377 737L378 738L377 737z"/>
<path style="fill:#8ea0b6; stroke:none;" d="M423 737L424 738L423 737z"/>
<path style="fill:#49678f; stroke:none;" d="M424 737L425 738L424 737M429 737L430 738L429 737z"/>
<path style="fill:#8ea0b6; stroke:none;" d="M430 737L431 738L430 737z"/>
<path style="fill:#647d9f; stroke:none;" d="M216 738L217 739L216 738z"/>
<path style="fill:#49678f; stroke:none;" d="M287 738L288 739L287 738z"/>
<path style="fill:#8ea0b6; stroke:none;" d="M377 738L378 739L377 738z"/>
<path style="fill:#49678f; stroke:none;" d="M422 738L423 739L422 738z"/>
<path style="fill:#8ea0b6; stroke:none;" d="M431 738L432 739L431 738z"/>
<path style="fill:#49678f; stroke:none;" d="M218 739L219 740L218 739M286 739L287 740L286 739z"/>
<path style="fill:#647d9f; stroke:none;" d="M412 739L413 740L412 739z"/>
<path style="fill:#8ea0b6; stroke:none;" d="M420 739L421 740L420 739z"/>
<path style="fill:#647d9f; stroke:none;" d="M219 740L220 741L219 740z"/>
<path style="fill:#8ea0b6; stroke:none;" d="M285 740L286 741L285 740z"/>
<path style="fill:#49678f; stroke:none;" d="M378 740L379 741L378 740M412 740L412 743L413 743L412 740M419 740L420 741L419 740z"/>
<path style="fill:#647d9f; stroke:none;" d="M432 740L433 741L432 740z"/>
<path style="fill:#8ea0b6; stroke:none;" d="M220 741L221 742L220 741z"/>
<path style="fill:#49678f; stroke:none;" d="M221 741L222 742L221 741z"/>
<path style="fill:#8ea0b6; stroke:none;" d="M284 741L285 742L284 741z"/>
<path style="fill:#647d9f; stroke:none;" d="M378 741L379 742L378 741z"/>
<path style="fill:#8ea0b6; stroke:none;" d="M417 741L418 742L417 741z"/>
<path style="fill:#49678f; stroke:none;" d="M432 741L433 742L432 741z"/>
<path style="fill:#647d9f; stroke:none;" d="M222 742L223 743L222 742z"/>
<path style="fill:#8ea0b6; stroke:none;" d="M378 742L379 743L378 742z"/>
<path style="fill:#49678f; stroke:none;" d="M416 742L417 743L416 742z"/>
<path style="fill:#8ea0b6; stroke:none;" d="M223 743L224 744L223 743z"/>
<path style="fill:#647d9f; stroke:none;" d="M414 743L415 744L414 743z"/>
<path style="fill:#49678f; stroke:none;" d="M432 743L433 744L432 743z"/>
<path style="fill:#647d9f; stroke:none;" d="M225 744L226 745L225 744z"/>
<path style="fill:#49678f; stroke:none;" d="M281 744L281 755L282 755L281 744M379 744L380 745L379 744M413 744L414 745L413 744z"/>
<path style="fill:#647d9f; stroke:none;" d="M432 744L433 745L432 744z"/>
<path style="fill:#8ea0b6; stroke:none;" d="M226 745L227 746L226 745z"/>
<path style="fill:#49678f; stroke:none;" d="M227 745L228 746L227 745z"/>
<path style="fill:#647d9f; stroke:none;" d="M379 745L380 746L379 745z"/>
<path style="fill:#8ea0b6; stroke:none;" d="M432 745L433 746L432 745z"/>
<path style="fill:#647d9f; stroke:none;" d="M228 746L229 747L228 746z"/>
<path style="fill:#8ea0b6; stroke:none;" d="M379 746L380 747L379 746M229 747L230 748L229 747M431 747L432 748L431 747z"/>
<path style="fill:#647d9f; stroke:none;" d="M231 748L232 749L231 748z"/>
<path style="fill:#49678f; stroke:none;" d="M380 748L381 749L380 748M430 748L431 749L430 748z"/>
<path style="fill:#8ea0b6; stroke:none;" d="M232 749L233 750L232 749M380 749L381 750L380 749z"/>
<path style="fill:#647d9f; stroke:none;" d="M234 750L235 751L234 750z"/>
<path style="fill:#8ea0b6; stroke:none;" d="M235 751L236 752L235 751M428 751L429 752L428 751z"/>
<path style="fill:#647d9f; stroke:none;" d="M237 752L238 753L237 752M381 752L382 753L381 752z"/>
<path style="fill:#8ea0b6; stroke:none;" d="M238 753L239 754L238 753M381 753L382 754L381 753z"/>
<path style="fill:#49678f; stroke:none;" d="M425 753L426 754L425 753z"/>
<path style="fill:#647d9f; stroke:none;" d="M240 754L241 755L240 754z"/>
<path style="fill:#49678f; stroke:none;" d="M424 754L425 755L424 754z"/>
<path style="fill:#8ea0b6; stroke:none;" d="M241 755L242 756L241 755z"/>
<path style="fill:#49678f; stroke:none;" d="M382 755L383 756L382 755M423 755L424 756L423 755z"/>
<path style="fill:#647d9f; stroke:none;" d="M243 756L244 757L243 756M382 756L383 757L382 756M422 756L423 757L422 756z"/>
<path style="fill:#8ea0b6; stroke:none;" d="M244 757L245 758L244 757M382 757L383 758L382 757M421 757L422 758L421 757M420 758L421 759L420 758z"/>
<path style="fill:#49678f; stroke:none;" d="M243 759L244 760L243 759M383 759L384 760L383 759z"/>
<path style="fill:#8ea0b6; stroke:none;" d="M242 760L243 761L242 760M383.333 760.667L383.667 761.333L383.333 760.667z"/>
<path style="fill:#49678f; stroke:none;" d="M417 760L418 761L417 760z"/>
<path style="fill:#8ea0b6; stroke:none;" d="M241 761L242 762L241 761z"/>
<path style="fill:#49678f; stroke:none;" d="M416 761L417 762L416 761z"/>
<path style="fill:#8ea0b6; stroke:none;" d="M282 762L282 768L283 768L282 762z"/>
<path style="fill:#647d9f; stroke:none;" d="M415 762L416 763L415 762z"/>
<path style="fill:#49678f; stroke:none;" d="M240 763L241 764L240 763z"/>
<path style="fill:#647d9f; stroke:none;" d="M248.667 763.333L249.333 763.667L248.667 763.333z"/>
<path style="fill:#49678f; stroke:none;" d="M384 763L385 764L384 763z"/>
<path style="fill:#8ea0b6; stroke:none;" d="M414 763L415 764L414 763M239 764L240 765L239 764z"/>
<path style="fill:#49678f; stroke:none;" d="M245 764L246 765L245 764z"/>
<path style="fill:#8ea0b6; stroke:none;" d="M246 764L247 765L246 764M384 764L385 765L384 764M413 764L414 765L413 764M238 765L239 766L238 765z"/>
<path style="fill:#647d9f; stroke:none;" d="M243 765L244 766L243 765M250 765L251 766L250 765z"/>
<path style="fill:#49678f; stroke:none;" d="M240 766L241 767L240 766z"/>
<path style="fill:#8ea0b6; stroke:none;" d="M241 766L242 767L241 766z"/>
<path style="fill:#647d9f; stroke:none;" d="M237 767L238 768L237 767z"/>
<path style="fill:#8ea0b6; stroke:none;" d="M238 767L239 768L238 767z"/>
<path style="fill:#647d9f; stroke:none;" d="M251 767L252 768L251 767M385 767L386 768L385 767M282 768L282 771L283 771L282 768z"/>
<path style="fill:#8ea0b6; stroke:none;" d="M385 768L386 769L385 768z"/>
<path style="fill:#49678f; stroke:none;" d="M252 769L253 770L252 769z"/>
<path style="fill:#8ea0b6; stroke:none;" d="M252 770L253 771L252 770z"/>
<path style="fill:#49678f; stroke:none;" d="M386 770L387 771L386 770M253 771L254 772L253 771M282 771L282 774L283 774L282 771z"/>
<path style="fill:#647d9f; stroke:none;" d="M386 771L387 772L386 771z"/>
<path style="fill:#8ea0b6; stroke:none;" d="M413 771L413 775L414 775L413 771M253 772L254 773L253 772M386 772L387 773L386 772M254 774L255 775L254 774z"/>
<path style="fill:#49678f; stroke:none;" d="M387 774L388 775L387 774z"/>
<path style="fill:#8ea0b6; stroke:none;" d="M387 775L388 776L387 775z"/>
<path style="fill:#647d9f; stroke:none;" d="M413.333 775.667L413.667 776.333L413.333 775.667z"/>
<path style="fill:#8ea0b6; stroke:none;" d="M255 776L256 777L255 776z"/>
<path style="fill:#49678f; stroke:none;" d="M413.333 777.667L413.667 778.333L413.333 777.667z"/>
<path style="fill:#647d9f; stroke:none;" d="M256 778L257 779L256 778z"/>
<path style="fill:#49678f; stroke:none;" d="M388 778L389 779L388 778z"/>
<path style="fill:#8ea0b6; stroke:none;" d="M388 779L389 780L388 779z"/>
<path style="fill:#647d9f; stroke:none;" d="M257 780L258 781L257 780z"/>
<path style="fill:#8ea0b6; stroke:none;" d="M283 780L283 785L284 785L283 780z"/>
<path style="fill:#49678f; stroke:none;" d="M389 781L390 782L389 781M258 782L259 783L258 782z"/>
<path style="fill:#647d9f; stroke:none;" d="M389 782L390 783L389 782z"/>
<path style="fill:#8ea0b6; stroke:none;" d="M389 783L390 784L389 783M414 783L414 786L415 786L414 783z"/>
<path style="fill:#49678f; stroke:none;" d="M259 784L260 785L259 784z"/>
<path style="fill:#8ea0b6; stroke:none;" d="M259 785L260 786L259 785z"/>
<path style="fill:#647d9f; stroke:none;" d="M283.333 785.667L283.667 786.333L283.333 785.667z"/>
<path style="fill:#49678f; stroke:none;" d="M390 785L391 786L390 785M260 786L261 787L260 786z"/>
<path style="fill:#647d9f; stroke:none;" d="M390 786L391 787L390 786M414.333 786.667L414.667 787.333L414.333 786.667z"/>
<path style="fill:#8ea0b6; stroke:none;" d="M260 787L261 788L260 787z"/>
<path style="fill:#49678f; stroke:none;" d="M283 787L283 791L284 791L283 787z"/>
<path style="fill:#8ea0b6; stroke:none;" d="M390 787L391 788L390 787z"/>
<path style="fill:#49678f; stroke:none;" d="M414.333 788.667L414.667 789.333L414.333 788.667z"/>
<path style="fill:#8ea0b6; stroke:none;" d="M261 789L262 790L261 789z"/>
<path style="fill:#49678f; stroke:none;" d="M391 789L392 790L391 789z"/>
<path style="fill:#8ea0b6; stroke:none;" d="M391 790L392 791L391 790z"/>
<path style="fill:#647d9f; stroke:none;" d="M262 791L263 792L262 791M263 793L264 794L263 793z"/>
<path style="fill:#8ea0b6; stroke:none;" d="M283 793L284 794L283 793z"/>
<path style="fill:#647d9f; stroke:none;" d="M392 793L393 794L392 793z"/>
<path style="fill:#8ea0b6; stroke:none;" d="M415.333 793.667L415.667 794.333L415.333 793.667z"/>
<path style="fill:#647d9f; stroke:none;" d="M282 794L283 795L282 794z"/>
<path style="fill:#8ea0b6; stroke:none;" d="M392 794L393 795L392 794z"/>
<path style="fill:#49678f; stroke:none;" d="M264 795L265 796L264 795M281 795L282 796L281 795z"/>
<path style="fill:#647d9f; stroke:none;" d="M415 795L415 800L416 800L415 795z"/>
<path style="fill:#49678f; stroke:none;" d="M393 796L394 797L393 796M265 797L266 798L265 797z"/>
<path style="fill:#8ea0b6; stroke:none;" d="M280 797L281 798L280 797z"/>
<path style="fill:#647d9f; stroke:none;" d="M393 797L394 798L393 797z"/>
<path style="fill:#8ea0b6; stroke:none;" d="M265 798L266 799L265 798M279 798L280 799L279 798M393 798L394 799L393 798z"/>
<path style="fill:#49678f; stroke:none;" d="M266 799L267 800L266 799z"/>
<path style="fill:#8ea0b6; stroke:none;" d="M278 799L279 800L278 799M266 800L267 801L266 800z"/>
<path style="fill:#49678f; stroke:none;" d="M277 800L278 801L277 800M394 800L395 801L394 800z"/>
<path style="fill:#8ea0b6; stroke:none;" d="M415.333 800.667L415.667 801.333L415.333 800.667z"/>
<path style="fill:#49678f; stroke:none;" d="M276 801L277 802L276 801z"/>
<path style="fill:#8ea0b6; stroke:none;" d="M394.333 801.667L394.667 802.333L394.333 801.667M267 802L268 803L267 802z"/>
<path style="fill:#49678f; stroke:none;" d="M414 803L415 804L414 803z"/>
<path style="fill:#647d9f; stroke:none;" d="M268 804L269 805L268 804z"/>
<path style="fill:#8ea0b6; stroke:none;" d="M274 804L275 805L274 804z"/>
<path style="fill:#49678f; stroke:none;" d="M395 804L396 805L395 804z"/>
<path style="fill:#8ea0b6; stroke:none;" d="M414 804L415 805L414 804M273 805L274 806L273 805M395 805L396 806L395 805z"/>
<path style="fill:#647d9f; stroke:none;" d="M269 806L270 807L269 806M272 806L273 807L272 806M413 806L414 807L413 806z"/>
<path style="fill:#49678f; stroke:none;" d="M271 807L272 808L271 807M396 807L397 808L396 807z"/>
<path style="fill:#8ea0b6; stroke:none;" d="M270 808L271 809L270 808z"/>
<path style="fill:#647d9f; stroke:none;" d="M396 808L397 809L396 808z"/>
<path style="fill:#8ea0b6; stroke:none;" d="M412 808L413 809L412 808M396 809L397 810L396 809z"/>
<path style="fill:#647d9f; stroke:none;" d="M411 809L412 810L411 809M410 810L411 811L410 810z"/>
<path style="fill:#49678f; stroke:none;" d="M397 811L398 812L397 811z"/>
<path style="fill:#8ea0b6; stroke:none;" d="M409 811L410 812L409 811z"/>
<path style="fill:#647d9f; stroke:none;" d="M397 812L398 813L397 812z"/>
<path style="fill:#49678f; stroke:none;" d="M407 812L408 813L407 812z"/>
<path style="fill:#8ea0b6; stroke:none;" d="M397 813L398 814L397 813z"/>
<path style="fill:#647d9f; stroke:none;" d="M406 813L407 814L406 813z"/>
<path style="fill:#8ea0b6; stroke:none;" d="M405 814L406 815L405 814z"/>
<path style="fill:#49678f; stroke:none;" d="M398 815L399 816L398 815M403 815L404 816L403 815z"/>
<path style="fill:#8ea0b6; stroke:none;" d="M398 816L399 817L398 816z"/>
<path style="fill:#647d9f; stroke:none;" d="M402 816L403 817L402 816z"/>
<path style="fill:#8ea0b6; stroke:none;" d="M401 817L402 818L401 817z"/>
<path style="fill:#49678f; stroke:none;" d="M399 818L400 819L399 818z"/>
</svg>
